<svg version="1.1" id="Layer_1" xmlns="http://www.w3.org/2000/svg" xmlns:xlink="http://www.w3.org/1999/xlink" x="0px" y="0px"
	 width="100%" viewBox="0 0 256 256" enable-background="new 0 0 256 256" xml:space="preserve">
<path fill="#FFFFFF" opacity="1.000000" stroke="none" 
	d="
M175.000000,257.000000 
	C116.666672,257.000000 58.833340,257.000000 1.000008,257.000000 
	C1.000005,171.666672 1.000005,86.333351 1.000003,1.000019 
	C86.333321,1.000013 171.666641,1.000013 257.000000,1.000006 
	C257.000000,86.333313 257.000000,171.666626 257.000000,256.999969 
	C229.833328,257.000000 202.666672,257.000000 175.000000,257.000000 
M86.519394,225.000595 
	C116.513031,225.000580 146.506729,225.040054 176.500290,224.988922 
	C203.797043,224.942398 224.934555,203.859497 224.986511,176.601883 
	C225.046860,144.942062 225.034698,113.281975 224.990265,81.622086 
	C224.951599,54.061596 203.860367,33.042000 176.224808,33.008286 
	C144.731537,32.969868 113.238152,32.969963 81.744881,33.008266 
	C54.120895,33.041862 33.048660,54.068588 33.009758,81.652901 
	C32.965107,113.312782 32.936695,144.973053 33.073551,176.632401 
	C33.092037,180.908966 33.720284,185.277267 34.737698,189.438934 
	C39.387749,208.459641 57.996315,226.613724 86.519394,225.000595 
z"/>
<path fill="#010101" opacity="1.000000" stroke="none" 
	d="
M86.024246,225.000595 
	C57.996315,226.613724 39.387749,208.459641 34.737698,189.438934 
	C33.720284,185.277267 33.092037,180.908966 33.073551,176.632401 
	C32.936695,144.973053 32.965107,113.312782 33.009758,81.652901 
	C33.048660,54.068588 54.120895,33.041862 81.744881,33.008266 
	C113.238152,32.969963 144.731537,32.969868 176.224808,33.008286 
	C203.860367,33.042000 224.951599,54.061596 224.990265,81.622086 
	C225.034698,113.281975 225.046860,144.942062 224.986511,176.601883 
	C224.934555,203.859497 203.797043,224.942398 176.500290,224.988922 
	C146.506729,225.040054 116.513031,225.000580 86.024246,225.000595 
M116.956184,167.102036 
	C127.593338,176.145035 139.528183,176.244980 151.528519,171.057983 
	C168.888306,163.554443 180.032318,140.116180 176.547485,119.961174 
	C172.628769,97.296692 150.288620,88.274933 131.643707,101.796860 
	C130.735214,102.455734 129.552597,102.736618 128.339096,103.262177 
	C130.995270,91.522835 133.501038,80.448250 136.038940,69.231636 
	C126.374512,69.231636 117.113525,69.231636 107.574333,69.231636 
	C98.667206,109.043533 89.796936,148.690720 80.757812,189.092606 
	C90.217720,184.182358 98.836670,179.598053 107.565331,175.233154 
	C110.986694,173.522247 113.875603,171.698013 114.091255,167.382935 
	C114.106598,167.075821 115.573235,166.841232 116.956184,167.102036 
z"/>
<path fill="#FCFCFC" opacity="1.000000" stroke="none" 
	d="
M116.660614,166.837479 
	C115.573235,166.841232 114.106598,167.075821 114.091255,167.382935 
	C113.875603,171.698013 110.986694,173.522247 107.565331,175.233154 
	C98.836670,179.598053 90.217720,184.182358 80.757812,189.092606 
	C89.796936,148.690720 98.667206,109.043533 107.574333,69.231636 
	C117.113525,69.231636 126.374512,69.231636 136.038940,69.231636 
	C133.501038,80.448250 130.995270,91.522835 128.339096,103.262177 
	C129.552597,102.736618 130.735214,102.455734 131.643707,101.796860 
	C150.288620,88.274933 172.628769,97.296692 176.547485,119.961174 
	C180.032318,140.116180 168.888306,163.554443 151.528519,171.057983 
	C139.528183,176.244980 127.593338,176.145035 116.660614,166.837479 
M139.678955,147.375458 
	C141.964493,144.618713 144.994629,142.191559 146.389313,139.040527 
	C149.904449,131.098816 146.190750,122.995453 138.725021,120.888229 
	C130.531418,118.575554 123.929176,122.788025 122.023209,131.545105 
	C121.634995,133.328766 120.977356,135.104416 120.921608,136.898605 
	C120.823967,140.040878 116.813347,143.669250 121.179459,146.219742 
	C124.218712,147.995148 127.890343,149.104324 131.397079,149.520676 
	C133.842117,149.810974 136.486343,148.423660 139.678955,147.375458 
z"/>
<path fill="#040404" opacity="1.000000" stroke="none" 
	d="
M139.360275,147.580597 
	C136.486343,148.423660 133.842117,149.810974 131.397079,149.520676 
	C127.890343,149.104324 124.218712,147.995148 121.179459,146.219742 
	C116.813347,143.669250 120.823967,140.040878 120.921608,136.898605 
	C120.977356,135.104416 121.634995,133.328766 122.023209,131.545105 
	C123.929176,122.788025 130.531418,118.575554 138.725021,120.888229 
	C146.190750,122.995453 149.904449,131.098816 146.389313,139.040527 
	C144.994629,142.191559 141.964493,144.618713 139.360275,147.580597 
z"/>
</svg>