<svg version="1.1" id="Layer_1" xmlns="http://www.w3.org/2000/svg" xmlns:xlink="http://www.w3.org/1999/xlink" x="0px" y="0px"
	 width="100%" viewBox="0 0 225 225" enable-background="new 0 0 225 225" xml:space="preserve">
<path fill="#FFFEFE" opacity="1.000000" stroke="none" 
	d="
M102.000000,226.000000 
	C68.000000,226.000000 34.500004,226.000000 1.000005,226.000000 
	C1.000003,151.000000 1.000003,76.000015 1.000001,1.000015 
	C75.999992,1.000010 150.999985,1.000010 225.999969,1.000005 
	C225.999985,75.999985 225.999985,150.999969 226.000000,225.999969 
	C184.833328,226.000000 143.666672,226.000000 102.000000,226.000000 
M181.981812,99.501518 
	C181.981812,99.501518 181.857773,99.025230 181.990295,98.258278 
	C180.684555,91.295395 178.871140,88.815536 173.861633,88.788361 
	C156.247910,88.692818 138.632782,88.860146 120.408646,88.903221 
	C120.297989,89.265106 120.187340,89.626999 119.907440,90.914375 
	C119.963860,106.279297 120.020287,121.644218 120.018356,137.626663 
	C120.352608,137.776718 120.686867,137.926773 121.935135,138.292938 
	C139.293930,138.166733 156.652710,138.040543 174.500534,138.015549 
	C174.500534,138.015549 174.975601,137.861618 175.687531,137.907455 
	C179.920547,136.433929 181.881561,133.391876 181.981766,128.501251 
	C181.981766,128.501251 181.879120,128.019806 182.066315,127.096252 
	C182.003754,118.058418 181.941193,109.020584 181.981812,99.501518 
M96.499336,38.661339 
	C86.510422,38.685596 76.518936,38.583061 66.533653,38.785919 
	C61.293438,38.892376 57.609474,41.818020 57.478325,46.875679 
	C57.189728,58.005051 57.281796,69.170929 57.883259,80.285934 
	C58.201855,86.173607 61.180077,88.205582 67.260399,88.246773 
	C78.248665,88.321220 89.237793,88.269630 100.226555,88.270309 
	C106.523994,88.270706 112.821434,88.270386 119.116570,88.270386 
	C119.116570,73.885452 119.329201,59.959473 118.993744,46.046711 
	C118.885788,41.569462 115.709648,38.915092 110.981354,38.816608 
	C106.487946,38.723011 101.992653,38.720089 96.499336,38.661339 
M65.098900,138.930817 
	C58.843803,139.699188 57.500465,144.336807 57.380661,149.401764 
	C57.152317,159.055344 57.084995,168.724670 57.376820,178.374573 
	C57.583111,185.196243 60.488995,188.080811 67.375809,188.186096 
	C81.692818,188.404938 96.017464,188.331406 110.335922,188.144485 
	C115.983688,188.070755 118.955948,185.699097 119.125946,180.053696 
	C119.535286,166.459564 119.258568,152.844772 119.258568,138.845993 
	C101.535332,138.845993 83.763153,138.845993 65.098900,138.930817 
z"/>
<path fill="#F26309" opacity="1.000000" stroke="none" 
	d="
M96.998764,38.669315 
	C101.992653,38.720089 106.487946,38.723011 110.981354,38.816608 
	C115.709648,38.915092 118.885788,41.569462 118.993744,46.046711 
	C119.329201,59.959473 119.116570,73.885452 119.116570,88.270386 
	C112.821434,88.270386 106.523994,88.270706 100.226555,88.270309 
	C89.237793,88.269630 78.248665,88.321220 67.260399,88.246773 
	C61.180077,88.205582 58.201855,86.173607 57.883259,80.285934 
	C57.281796,69.170929 57.189728,58.005051 57.478325,46.875679 
	C57.609474,41.818020 61.293438,38.892376 66.533653,38.785919 
	C76.518936,38.583061 86.510422,38.685596 96.998764,38.669315 
z"/>
<path fill="#F26309" opacity="1.000000" stroke="none" 
	d="
M65.544937,138.888397 
	C83.763153,138.845993 101.535332,138.845993 119.258568,138.845993 
	C119.258568,152.844772 119.535286,166.459564 119.125946,180.053696 
	C118.955948,185.699097 115.983688,188.070755 110.335922,188.144485 
	C96.017464,188.331406 81.692818,188.404938 67.375809,188.186096 
	C60.488995,188.080811 57.583111,185.196243 57.376820,178.374573 
	C57.084995,168.724670 57.152317,159.055344 57.380661,149.401764 
	C57.500465,144.336807 58.843803,139.699188 65.544937,138.888397 
z"/>
<path fill="#F26207" opacity="1.000000" stroke="none" 
	d="
M120.076706,137.009140 
	C120.020287,121.644218 119.963860,106.279297 120.205406,90.331276 
	C120.758278,89.526962 120.929878,89.253479 121.018173,88.927719 
	C138.632782,88.860146 156.247910,88.692818 173.861633,88.788361 
	C178.871140,88.815536 180.684555,91.295395 181.777100,98.732422 
	C181.668808,99.465294 181.773727,99.724022 181.878632,99.982750 
	C181.941193,109.020584 182.003754,118.058418 181.822968,127.643921 
	C181.522552,128.290436 181.392838,128.436417 181.421066,128.479904 
	C181.539337,128.662140 181.704926,128.813675 181.853195,128.976440 
	C181.881561,133.391876 179.920547,136.433929 175.237198,137.737228 
	C174.528412,137.682785 174.269958,137.798569 174.011505,137.914337 
	C156.652710,138.040543 139.293930,138.166733 121.380005,137.959106 
	C120.646858,137.333237 120.397469,137.127853 120.076706,137.009140 
z"/>
<path fill="#F25900" opacity="1.000000" stroke="none" 
	d="
M120.713409,88.915466 
	C120.929878,89.253479 120.758278,89.526962 120.290024,89.868530 
	C120.187340,89.626999 120.297989,89.265106 120.713409,88.915466 
z"/>
<path fill="#F15500" opacity="1.000000" stroke="none" 
	d="
M181.930222,99.742134 
	C181.773727,99.724022 181.668808,99.465294 181.710831,99.115906 
	C181.857773,99.025230 181.981812,99.501518 181.930222,99.742134 
z"/>
<path fill="#F15500" opacity="1.000000" stroke="none" 
	d="
M181.917480,128.738846 
	C181.704926,128.813675 181.539337,128.662140 181.421066,128.479904 
	C181.392838,128.436417 181.522552,128.290436 181.729370,128.105698 
	C181.879120,128.019806 181.981766,128.501251 181.917480,128.738846 
z"/>
<path fill="#F25900" opacity="1.000000" stroke="none" 
	d="
M120.047531,137.317902 
	C120.397469,137.127853 120.646858,137.333237 120.923004,137.851044 
	C120.686867,137.926773 120.352608,137.776718 120.047531,137.317902 
z"/>
<path fill="#F25900" opacity="1.000000" stroke="none" 
	d="
M174.256012,137.964935 
	C174.269958,137.798569 174.528412,137.682785 174.881226,137.714310 
	C174.975601,137.861618 174.500534,138.015549 174.256012,137.964935 
z"/>
</svg>